<?xml version="1.0" encoding="UTF-8"?>
<svg width="128px" height="128px" viewBox="0 0 128 128" version="1.1" xmlns="http://www.w3.org/2000/svg" xmlns:xlink="http://www.w3.org/1999/xlink">
    <!-- Generator: Sketch 48.2 (47327) - http://www.bohemiancoding.com/sketch -->
    <title>icon</title>
    <desc>Created with Sketch.</desc>
    <defs>
        <radialGradient cx="0%" cy="0%" fx="0%" fy="0%" r="143.544416%" id="radialGradient-1">
            <stop stop-color="#09008E" offset="0%"></stop>
            <stop stop-color="#C86DD7" offset="100%"></stop>
        </radialGradient>
    </defs>
    <g id="Page-1" stroke="none" stroke-width="1" fill="none" fill-rule="evenodd">
        <g id="icon">
            <rect id="Rectangle" fill="url(#radialGradient-1)" x="0" y="0" width="128" height="128"></rect>
            <g id="gf_logo" transform="translate(30.000000, 7.000000)" fill-rule="nonzero">
                <g id="Group">
                    <path d="M61.9042857,16.4390879 C59.0385714,14.6794788 56.0028571,13.1609121 53.0157143,11.618241 C51.4371429,10.7986971 49.7614286,10.0514658 48.2071429,9.18371336 C46.8471429,8.36416938 45.56,7.37589577 44.2485714,6.45993485 C41.7957143,4.77263844 39.0514286,3.47100977 36.1614286,2.67557003 C34.1942857,2.16938111 32.3485714,1.97654723 30.5757143,2.19348534 L30.5514286,2.19348534 C24.0185714,4.55570033 18.3842857,8.6534202 12.4585714,12.2208469 C11.5357143,13.0403909 10.6614286,13.8599349 9.69,14.6071661 C7.43142857,16.3185668 4.29857143,17.6925081 2.86571429,20.247557 C2.79285714,20.3921824 2.72,20.5127036 2.64714286,20.7055375 L2.64714286,52.4990228 C4.10428571,54.4032573 5.70714286,56.1869707 7.48,57.7778502 C9.20428571,59.3687296 11.0742857,60.7908795 13.1628571,61.9478827 C15.0814286,63.0084691 17.0485714,63.9003257 18.9428571,65.057329 C23.6785714,67.9498371 28.6328571,70.3361564 33.66,72.6260586 C37.74,70.9387622 41.8685714,69.4684039 45.6085714,67.0338762 C48.0371429,65.4912052 50.4414286,63.92443 52.9428571,62.4781759 C55.1528571,61.1765472 57.1928571,59.9954397 59.0142857,58.1876221 C61.2971429,55.9218241 63.2157143,53.2944625 65.4985714,51.0286645 L65.4985714,19.52443 C64.5028571,18.2469055 63.2885714,17.2827362 61.9042857,16.4390879 Z" id="Shape" fill="#E0E0E0"></path>
                    <path d="M34.0971429,71.5895765 C32.2028571,71.5895765 30.3571429,71.1315961 29.0457143,70.3843648 L7.14,57.8260586 C4.37142857,56.2351792 2.08857143,52.3302932 2.08857143,49.12443 L2.08857143,24.0560261 C2.08857143,20.8983713 4.34714286,16.9693811 7.14,15.3543974 L29.0457143,2.79609121 C30.4057143,2.04885993 32.2271429,1.59087948 34.0971429,1.59087948 C36.0642857,1.59087948 37.8614286,2.0247557 39.1971429,2.82019544 L61.0542857,15.3543974 C63.8228571,16.9452769 66.1057143,20.8501629 66.1057143,24.0560261 L66.1057143,49.1485342 C66.1057143,52.3061889 63.8471429,56.2351792 61.0542857,57.8501629 L39.1728571,70.3843648 C37.8128571,71.1315961 35.9914286,71.5895765 34.0971429,71.5895765 Z M34.0971429,5.20651466 C32.8828571,5.20651466 31.6685714,5.47166124 30.8671429,5.92964169 L8.98571429,18.4879479 C7.38285714,19.428013 5.75571429,22.1758958 5.75571429,24.0319218 L5.75571429,49.12443 C5.75571429,51.0286645 7.31,53.752443 8.98571429,54.6684039 L30.8914286,67.2267101 C31.6442857,67.6846906 32.9071429,67.9498371 34.1214286,67.9498371 C35.36,67.9498371 36.5742857,67.6846906 37.3757143,67.2267101 L59.2814286,54.6684039 C60.8842857,53.7283388 62.5114286,50.980456 62.5114286,49.12443 L62.5114286,24.0560261 C62.5114286,22.1517915 60.9571429,19.428013 59.2814286,18.5120521 L37.3757143,5.95374593 C36.5985714,5.47166124 35.3842857,5.20651466 34.0971429,5.20651466 Z" id="Shape" fill="#FFFFFD"></path>
                    <path d="M61.9771429,14.0286645 L40.0714286,1.47035831 C38.4685714,0.554397394 36.3314286,0.0482084691 34.0728571,0.0482084691 C31.8142857,0.0482084691 29.7014286,0.554397394 28.0742857,1.49446254 L6.16857143,14.0527687 C2.81714286,15.9570033 0.17,20.4885993 0.17,24.3452769 L0.17,49.437785 C0.17,53.2944625 2.81714286,57.8260586 6.16857143,59.7543974 L28.0742857,72.3127036 C29.7257143,73.2527687 31.8385714,73.7589577 34.0728571,73.7589577 C36.3314286,73.7589577 38.4442857,73.2527687 40.0714286,72.3127036 L61.9771429,59.7543974 C65.3528571,57.8260586 67.9757143,53.2944625 67.9757143,49.437785 L67.9757143,24.3452769 C68,20.4885993 65.3528571,15.9570033 61.9771429,14.0286645 Z M64.2842857,49.437785 C64.2842857,51.9687296 62.3414286,55.295114 60.1557143,56.5726384 L38.25,69.1309446 C37.1814286,69.7335505 35.6757143,70.095114 34.0728571,70.095114 C32.47,70.095114 30.9642857,69.7335505 29.9442857,69.1309446 L8.03857143,56.5726384 C5.82857143,55.295114 3.91,51.9928339 3.91,49.437785 L3.91,24.3452769 C3.91,21.8143322 5.85285714,18.4879479 8.03857143,17.2104235 L29.9442857,4.65211726 C31.0128571,4.0495114 32.5185714,3.68794788 34.0728571,3.68794788 C35.6514286,3.68794788 37.1814286,4.02540717 38.25,4.65211726 L60.1557143,17.2104235 C62.3657143,18.4879479 64.2842857,21.790228 64.2842857,24.3452769 L64.2842857,49.437785 Z" id="Shape" fill="#000000"></path>
                    <path d="M26.3985714,29.3107492 L52.4085714,29.3107492 L52.4085714,22.7061889 L26.4471429,22.7061889 C23.0714286,22.7061889 20.2785714,23.8631922 18.1171429,26.1289902 C12.9685714,31.5765472 13.7214286,41.8208469 13.7457143,42.2547231 L13.9885714,45.2918567 L52.2142857,45.2918567 L52.2142857,35.1921824 L45.56,35.1921824 L45.56,38.6872964 L20.4,38.6872964 C20.5457143,36.5179153 21.08,32.6612378 22.9742857,30.6605863 C23.8242857,29.7446254 24.9171429,29.3107492 26.3985714,29.3107492 Z" id="Shape" fill="#000000"></path>
                    <g transform="translate(15.300000, 48.208469)" fill="#000000" id="Shape">
                        <path d="M6.55714286,0.0241042345 L1.91857143,0.0241042345 C1.04428571,0.0241042345 0.655714286,0.457980456 0.534285714,1.20521173 L0.121428571,3.73615635 C0.0971428571,3.90488599 0.17,3.9771987 0.315714286,3.9771987 L0.898571429,3.9771987 C1.06857143,3.9771987 1.14142857,3.90488599 1.16571429,3.73615635 L1.36,2.53094463 L5.58571429,2.53094463 C5.75571429,2.53094463 5.82857143,2.45863192 5.85285714,2.28990228 L5.92571429,1.83192182 C5.95,1.66319218 5.87714286,1.59087948 5.73142857,1.59087948 L1.53,1.59087948 L1.57857143,1.3257329 C1.62714286,1.06058632 1.79714286,0.915960912 2.06428571,0.915960912 L6.41142857,0.915960912 C6.58142857,0.915960912 6.67857143,0.843648208 6.67857143,0.674918567 L6.75142857,0.216938111 C6.8,0.120521173 6.72714286,0.0241042345 6.55714286,0.0241042345 Z"></path>
                        <path d="M12.4585714,0.0241042345 L8.37857143,0.0241042345 C7.50428571,0.0241042345 7.11571429,0.457980456 6.99428571,1.20521173 L6.75142857,2.79609121 C6.72714286,2.89250814 6.72714286,2.98892508 6.72714286,3.06123779 C6.72714286,3.63973941 7.09142857,3.9771987 7.74714286,3.9771987 L11.8271429,3.9771987 C12.7014286,3.9771987 13.09,3.54332248 13.2114286,2.79609121 L13.4542857,1.20521173 C13.4785714,1.10879479 13.4785714,1.01237785 13.4785714,0.940065147 C13.4785714,0.361563518 13.1385714,0.0241042345 12.4585714,0.0241042345 Z M12.3857143,1.37394137 L12.1914286,2.6514658 C12.1428571,2.91661238 11.9728571,3.06123779 11.7057143,3.06123779 L8.23285714,3.06123779 C7.99,3.06123779 7.86857143,2.94071661 7.86857143,2.74788274 C7.86857143,2.7237785 7.86857143,2.67557003 7.86857143,2.6514658 L8.06285714,1.37394137 C8.11142857,1.10879479 8.28142857,0.964169381 8.54857143,0.964169381 L12.0214286,0.964169381 C12.2642857,0.964169381 12.3857143,1.08469055 12.3857143,1.30162866 C12.3857143,1.3257329 12.3857143,1.34983713 12.3857143,1.37394137 Z"></path>
                        <path d="M19.21,0.0241042345 L14.5471429,0.0241042345 C14.3771429,0.0241042345 14.3042857,0.0964169381 14.28,0.26514658 L13.7214286,3.76026059 C13.6971429,3.92899023 13.77,4.00130293 13.9157143,4.00130293 L14.4985714,4.00130293 C14.6685714,4.00130293 14.7414286,3.92899023 14.7657143,3.76026059 L14.9357143,2.7237785 L18.4571429,2.7237785 C18.7242857,2.7237785 18.8942857,2.84429967 18.8942857,3.08534202 C18.8942857,3.10944625 18.8942857,3.15765472 18.8942857,3.18175896 L18.7971429,3.78436482 C18.7728571,3.95309446 18.8457143,4.02540717 18.9914286,4.02540717 L19.5742857,4.02540717 C19.7442857,4.02540717 19.8171429,3.95309446 19.8414286,3.78436482 L19.9385714,3.20586319 C19.9385714,3.10944625 19.9628571,3.03713355 19.9628571,2.96482085 C19.9628571,2.60325733 19.7928571,2.41042345 19.5257143,2.28990228 C19.9385714,2.16938111 20.1571429,1.88013029 20.2542857,1.34983713 L20.3028571,1.08469055 C20.3028571,0.988273616 20.3271429,0.915960912 20.3271429,0.843648208 C20.2785714,0.241042345 19.89,0.0241042345 19.21,0.0241042345 Z M19.1614286,1.2534202 L19.1128571,1.51856678 C19.0885714,1.71140065 18.9428571,1.80781759 18.7485714,1.80781759 L15.0814286,1.80781759 L15.2028571,0.988273616 L18.87,0.988273616 C19.0642857,0.988273616 19.1614286,1.06058632 19.1614286,1.20521173 C19.1614286,1.20521173 19.1614286,1.22931596 19.1614286,1.2534202 Z"></path>
                        <path d="M28.2442857,0.0241042345 L26.2285714,0.0241042345 C25.6942857,0.0241042345 25.33,0.192833876 25.1114286,0.482084691 C24.9657143,0.192833876 24.65,0.0241042345 24.1885714,0.0241042345 L22.1728571,0.0241042345 C21.2985714,0.0241042345 20.91,0.457980456 20.7885714,1.20521173 L20.3757143,3.73615635 C20.3514286,3.90488599 20.4242857,3.9771987 20.57,3.9771987 L21.1528571,3.9771987 C21.3228571,3.9771987 21.3957143,3.90488599 21.42,3.73615635 L21.8085714,1.34983713 C21.8571429,1.08469055 22.0271429,0.940065147 22.2942857,0.940065147 L24.0671429,0.940065147 C24.31,0.940065147 24.4314286,1.06058632 24.4314286,1.27752443 C24.4314286,1.30162866 24.4314286,1.3257329 24.4314286,1.37394137 L24.0428571,3.76026059 C24.0185714,3.92899023 24.0914286,4.00130293 24.2371429,4.00130293 L24.82,4.00130293 C24.99,4.00130293 25.0628571,3.92899023 25.0871429,3.76026059 L25.4757143,1.37394137 C25.5242857,1.10879479 25.6942857,0.964169381 25.9614286,0.964169381 L27.7342857,0.964169381 C27.9771429,0.964169381 28.0985714,1.08469055 28.0985714,1.30162866 C28.0985714,1.3257329 28.0985714,1.34983713 28.0985714,1.3980456 L27.71,3.78436482 C27.6857143,3.95309446 27.7585714,4.02540717 27.9042857,4.02540717 L28.4871429,4.02540717 C28.6571429,4.02540717 28.73,3.95309446 28.7542857,3.78436482 L29.1671429,1.2534202 C29.1914286,1.15700326 29.1914286,1.06058632 29.1914286,0.988273616 C29.2642857,0.361563518 28.9,0.0241042345 28.2442857,0.0241042345 Z"></path>
                        <path d="M35.8214286,0.0241042345 L31.1828571,0.0241042345 C30.3085714,0.0241042345 29.8957143,0.289250814 29.7742857,1.03648208 L29.7014286,1.42214984 C29.7014286,1.51856678 29.6771429,1.59087948 29.6771429,1.66319218 C29.6771429,2.24169381 30.1142857,2.43452769 30.7942857,2.43452769 L34.4371429,2.43452769 C34.6314286,2.43452769 34.7285714,2.50684039 34.7285714,2.6514658 C34.7285714,2.67557003 34.7285714,2.69967427 34.7285714,2.7237785 L34.7285714,2.77198697 C34.7042857,2.96482085 34.5585714,3.06123779 34.34,3.06123779 L29.7985714,3.06123779 C29.6285714,3.06123779 29.5557143,3.13355049 29.5314286,3.30228013 L29.4585714,3.76026059 C29.4342857,3.92899023 29.5071429,4.00130293 29.6528571,4.00130293 L34.3642857,4.00130293 C35.2385714,4.00130293 35.6514286,3.73615635 35.7728571,2.98892508 L35.8457143,2.60325733 C35.8457143,2.53094463 35.87,2.43452769 35.87,2.38631922 C35.87,1.80781759 35.4571429,1.59087948 34.7771429,1.59087948 L31.1342857,1.59087948 C30.94,1.59087948 30.8428571,1.51856678 30.8428571,1.37394137 C30.8428571,1.34983713 30.8428571,1.3257329 30.8428571,1.30162866 L30.8428571,1.2534202 C30.8914286,1.06058632 30.9885714,0.988273616 31.2071429,0.988273616 L35.7,0.988273616 C35.87,0.988273616 35.9671429,0.915960912 35.9671429,0.74723127 L36.04,0.289250814 C36.0642857,0.120521173 35.9914286,0.0241042345 35.8214286,0.0241042345 Z"></path>
                    </g>
                </g>
            </g>
            <path d="M26.928,97 L26.928,87.9 L29.378,87.9 L30.12,90.868 L30.372,92.044 L30.428,92.044 L30.68,90.868 L31.422,87.9 L33.872,87.9 L33.872,97 L31.884,97 L31.884,94.858 C31.884,93.78 32.08,91.302 32.192,90.238 L32.15,90.238 L31.38,92.94 L30.904,94.592 L29.84,94.592 L29.336,92.94 L28.636,90.238 L28.58,90.238 C28.692,91.302 28.888,93.78 28.888,94.858 L28.888,97 L26.928,97 Z M35.524,97 L35.524,94.984 L37.596,94.984 L37.596,89.916 L35.524,89.916 L35.524,87.9 L42.076,87.9 L42.076,89.916 L40.004,89.916 L40.004,94.984 L42.076,94.984 L42.076,97 L35.524,97 Z M43.84,97 L43.84,87.9 L46.276,87.9 L47.802,91.96 L48.544,94.004 L48.6,94.004 C48.488,93.024 48.264,91.652 48.264,90.532 L48.264,87.9 L50.56,87.9 L50.56,97 L48.124,97 L46.598,92.926 L45.856,90.896 L45.8,90.896 C45.912,91.932 46.136,93.248 46.136,94.368 L46.136,97 L43.84,97 Z M56.678,99.52 C54.9,97.868 53.78,95.712 53.78,93.108 C53.78,90.504 54.9,88.348 56.678,86.696 L58.008,87.732 C56.426,89.37 55.768,90.952 55.768,93.108 C55.768,95.264 56.426,96.846 58.008,98.484 L56.678,99.52 Z M62.824,97.168 C61.368,97.168 60.556,96.16 60.556,95.012 C60.556,93.444 61.788,92.632 64.98,92.464 C64.896,91.96 64.42,91.736 63.636,91.736 C63.048,91.736 62.46,91.932 61.62,92.324 L60.78,90.756 C61.844,90.168 62.936,89.832 64.112,89.832 C66.1,89.832 67.388,90.812 67.388,93.108 L67.388,97 L65.428,97 L65.26,96.272 L65.204,96.272 C64.518,96.776 63.692,97.168 62.824,97.168 Z M63.608,95.32 C64.168,95.32 64.602,95.068 64.98,94.788 L64.98,93.892 C63.272,93.948 62.852,94.34 62.852,94.816 C62.852,95.138 63.104,95.32 63.608,95.32 Z M71.252,100.052 L70.678,98.68 C71.938,98.274 72.54,97.588 72.512,96.832 L72.4,96.832 C71.532,96.832 70.72,96.258 70.72,95.25 C70.72,94.312 71.49,93.668 72.47,93.668 C73.73,93.668 74.388,94.648 74.388,96.3 C74.388,98.134 73.338,99.464 71.252,100.052 Z M89.83,97.168 C89.2,97.168 88.57,96.86 88.024,96.244 L87.968,96.244 L87.772,97 L85.896,97 L85.896,87.256 L88.304,87.256 L88.304,89.524 L88.22,90.532 L88.276,90.532 C88.752,90.084 89.396,89.832 90.026,89.832 C91.72,89.832 92.812,91.232 92.812,93.374 C92.812,95.796 91.356,97.168 89.83,97.168 Z M89.256,95.208 C89.844,95.208 90.348,94.76 90.348,93.416 C90.348,92.268 89.998,91.792 89.312,91.792 C88.934,91.792 88.64,91.932 88.304,92.296 L88.304,94.872 C88.598,95.124 88.934,95.208 89.256,95.208 Z M96.522,99.52 L95.192,98.484 C96.774,96.846 97.432,95.264 97.432,93.108 C97.432,90.952 96.774,89.37 95.192,87.732 L96.522,86.696 C98.3,88.348 99.42,90.504 99.42,93.108 C99.42,95.712 98.3,97.868 96.522,99.52 Z M26.928,115 L26.928,105.9 L29.378,105.9 L30.12,108.868 L30.372,110.044 L30.428,110.044 L30.68,108.868 L31.422,105.9 L33.872,105.9 L33.872,115 L31.884,115 L31.884,112.858 C31.884,111.78 32.08,109.302 32.192,108.238 L32.15,108.238 L31.38,110.94 L30.904,112.592 L29.84,112.592 L29.336,110.94 L28.636,108.238 L28.58,108.238 C28.692,109.302 28.888,111.78 28.888,112.858 L28.888,115 L26.928,115 Z M38.086,110.576 L37.946,111.206 L39.57,111.206 L39.43,110.576 C39.234,109.708 38.968,108.616 38.772,107.692 L38.716,107.692 C38.52,108.616 38.282,109.708 38.086,110.576 Z M34.6,115 L37.344,105.9 L40.256,105.9 L43,115 L40.452,115 L40.004,113.068 L37.512,113.068 L37.064,115 L34.6,115 Z M43.056,115 L45.688,110.324 L43.21,105.9 L45.898,105.9 L46.626,107.384 C46.836,107.804 47.046,108.308 47.312,108.896 L47.368,108.896 C47.578,108.308 47.788,107.804 47.97,107.384 L48.614,105.9 L51.19,105.9 L48.712,110.436 L51.344,115 L48.656,115 L47.816,113.376 C47.564,112.9 47.354,112.424 47.116,111.864 L47.06,111.864 C46.85,112.424 46.64,112.9 46.416,113.376 L45.632,115 L43.056,115 Z M56.678,117.52 C54.9,115.868 53.78,113.712 53.78,111.108 C53.78,108.504 54.9,106.348 56.678,104.696 L58.008,105.732 C56.426,107.37 55.768,108.952 55.768,111.108 C55.768,113.264 56.426,114.846 58.008,116.484 L56.678,117.52 Z M62.824,115.168 C61.368,115.168 60.556,114.16 60.556,113.012 C60.556,111.444 61.788,110.632 64.98,110.464 C64.896,109.96 64.42,109.736 63.636,109.736 C63.048,109.736 62.46,109.932 61.62,110.324 L60.78,108.756 C61.844,108.168 62.936,107.832 64.112,107.832 C66.1,107.832 67.388,108.812 67.388,111.108 L67.388,115 L65.428,115 L65.26,114.272 L65.204,114.272 C64.518,114.776 63.692,115.168 62.824,115.168 Z M63.608,113.32 C64.168,113.32 64.602,113.068 64.98,112.788 L64.98,111.892 C63.272,111.948 62.852,112.34 62.852,112.816 C62.852,113.138 63.104,113.32 63.608,113.32 Z M71.252,118.052 L70.678,116.68 C71.938,116.274 72.54,115.588 72.512,114.832 L72.4,114.832 C71.532,114.832 70.72,114.258 70.72,113.25 C70.72,112.312 71.49,111.668 72.47,111.668 C73.73,111.668 74.388,112.648 74.388,114.3 C74.388,116.134 73.338,117.464 71.252,118.052 Z M89.83,115.168 C89.2,115.168 88.57,114.86 88.024,114.244 L87.968,114.244 L87.772,115 L85.896,115 L85.896,105.256 L88.304,105.256 L88.304,107.524 L88.22,108.532 L88.276,108.532 C88.752,108.084 89.396,107.832 90.026,107.832 C91.72,107.832 92.812,109.232 92.812,111.374 C92.812,113.796 91.356,115.168 89.83,115.168 Z M89.256,113.208 C89.844,113.208 90.348,112.76 90.348,111.416 C90.348,110.268 89.998,109.792 89.312,109.792 C88.934,109.792 88.64,109.932 88.304,110.296 L88.304,112.872 C88.598,113.124 88.934,113.208 89.256,113.208 Z M96.522,117.52 L95.192,116.484 C96.774,114.846 97.432,113.264 97.432,111.108 C97.432,108.952 96.774,107.37 95.192,105.732 L96.522,104.696 C98.3,106.348 99.42,108.504 99.42,111.108 C99.42,113.712 98.3,115.868 96.522,117.52 Z" id="MIN(a,-b)-MAX(a,-b)" fill="#FFFFFF"></path>
        </g>
    </g>
</svg>